# xmcd CD database file
#
# Track frame offsets:
#	150
#	11864
#	26719
#	35530
#	55891
#	79122
#	95862
#	111351
#	128058
#	135874
#	148124
#	168915
#	181454
#	194271
#	206847
#	216708
#	226506
#
# Disc length: 3245 seconds
#
# Revision: 0
# Processed by: cddbd v1.5.2PL0 Copyright (c) Steve Scherf et al.
# Submitted via: CDex 1.51
#
DISCID=f80cab11
DTITLE=Willie Salomon - Just in Time
DYEAR=2007
DGENRE=Blues
TTITLE0=Country Boy
TTITLE1=Mountain Jack Blues
TTITLE2=Cherry Blossom Rag
TTITLE3=Back On The Road
TTITLE4=Goin' To Brownsville
TTITLE5=Dreams
TTITLE6=Jitterbug Swing
TTITLE7=Gambler's Blues
TTITLE8=Just In Time
TTITLE9=Pressure Cooker 'Bout To Blow
TTITLE10=Catfish
TTITLE11=Rainy Day Blues
TTITLE12=Mistreatin' Woman Blues
TTITLE13=I Heard The Angels Singin'
TTITLE14=Savannah
TTITLE15=Take Me Back
TTITLE16=Memphis Boogie
EXTD=YEAR: 2007
EXTT0=
EXTT1=
EXTT2=
EXTT3=
EXTT4=
EXTT5=
EXTT6=
EXTT7=
EXTT8=
EXTT9=
EXTT10=
EXTT11=
EXTT12=
EXTT13=
EXTT14=
EXTT15=
EXTT16=
PLAYORDER=
